<svg xmlns="http://www.w3.org/2000/svg" version="1.1" xmlns:xlink="http://www.w3.org/1999/xlink" xmlns:svgjs="http://svgjs.dev/svgjs" width="1000" height="1000" viewBox="0 0 1000 1000"><rect width="1000" height="1000" fill="#ffffff"></rect><g transform="matrix(0.7,0,0,0.7,149.57577423057336,436.66270310849586)"><svg viewBox="0 0 396 72" data-background-color="#ffffff" preserveAspectRatio="xMidYMid meet" height="181" width="1000" xmlns="http://www.w3.org/2000/svg" xmlns:xlink="http://www.w3.org/1999/xlink"><g id="tight-bounds" transform="matrix(1,0,0,1,0.23999057813279023,-0.007218237717069087)"><svg viewBox="0 0 395.52 72.0144370523319" height="72.0144370523319" width="395.52"><g><svg viewBox="0 0 486.35452666240667 88.55316405098746" height="72.0144370523319" width="395.52"><g transform="matrix(1,0,0,1,90.83452666240672,12.238534250172648)"><svg viewBox="0 0 395.52 64.07609555064217" height="64.07609555064217" width="395.52"><g id="textblocktransform"><svg viewBox="0 0 395.52 64.07609555064217" height="64.07609555064217" width="395.52" id="textblock"><g><svg viewBox="0 0 395.52 36.53995556652678" height="36.53995556652678" width="395.52"><g transform="matrix(1,0,0,1,0,0)"><svg width="395.52" viewBox="0.9800000190734863 -36.060001373291016 395.5699768066406 36.55000305175781" height="36.53995556652678" data-palette-color="#89939e"><path d="M19.29-35.55L19.29 0 11.62 0 11.62-35.55 19.29-35.55ZM30.08-35.55L30.08-29.35 0.98-29.35 0.98-35.55 30.08-35.55ZM53.56-35.55L61.25-35.55 61.25-12.18Q61.25-8.06 59.49-5.22 57.74-2.39 54.65-0.95 51.56 0.49 47.56 0.49L47.56 0.49Q43.53 0.49 40.41-0.95 37.3-2.39 35.56-5.22 33.81-8.06 33.81-12.18L33.81-12.18 33.81-35.55 41.5-35.55 41.5-12.18Q41.5-9.89 42.21-8.46 42.92-7.03 44.28-6.36 45.65-5.69 47.56-5.69L47.56-5.69Q49.48-5.69 50.83-6.36 52.17-7.03 52.87-8.46 53.56-9.89 53.56-12.18L53.56-12.18 53.56-35.55ZM75.21-35.55L75.21 0 67.55 0 67.55-35.55 75.21-35.55ZM98.01-35.55L98.01 0 90.35 0 90.35-35.55 98.01-35.55ZM108.81-35.55L108.81-29.35 79.7-29.35 79.7-35.55 108.81-35.55ZM120.99-35.55L120.99 0 113.32 0 113.32-35.55 120.99-35.55ZM156.99-18.48L156.99-17.04Q156.99-11.57 155.07-7.65 153.14-3.74 149.72-1.62 146.3 0.49 141.81 0.49L141.81 0.49Q137.32 0.49 133.86-1.62 130.41-3.74 128.45-7.65 126.5-11.57 126.5-17.04L126.5-17.04 126.5-18.48Q126.5-23.95 128.44-27.87 130.38-31.79 133.83-33.91 137.27-36.04 141.76-36.04L141.76-36.04Q146.25-36.04 149.68-33.91 153.11-31.79 155.05-27.87 156.99-23.95 156.99-18.48L156.99-18.48ZM149.26-17.04L149.26-18.53Q149.26-22.19 148.38-24.68 147.5-27.17 145.81-28.44 144.13-29.71 141.76-29.71L141.76-29.71Q139.34-29.71 137.68-28.44 136.02-27.17 135.16-24.68 134.29-22.19 134.29-18.53L134.29-18.53 134.29-17.04Q134.29-13.4 135.17-10.9 136.05-8.4 137.72-7.1 139.39-5.81 141.81-5.81L141.81-5.81Q144.18-5.81 145.85-7.1 147.52-8.4 148.39-10.9 149.26-13.4 149.26-17.04L149.26-17.04ZM191.22-35.55L191.22 0 183.55 0 169.76-22.88 169.76 0 162.09 0 162.09-35.55 169.76-35.55 183.58-12.65 183.58-35.55 191.22-35.55ZM228.23-9.38L228.23-9.38Q228.23-10.57 227.71-11.45 227.2-12.33 225.75-13.12 224.3-13.92 221.46-14.82L221.46-14.82Q219.07-15.6 216.91-16.59 214.75-17.58 213.09-18.9 211.43-20.21 210.48-21.97 209.53-23.73 209.53-26.07L209.53-26.07Q209.53-29.08 211.23-31.31 212.94-33.54 215.93-34.79 218.93-36.04 222.78-36.04L222.78-36.04Q226.74-36.04 229.69-34.64 232.65-33.25 234.27-30.77 235.89-28.3 235.89-25.05L235.89-25.05 228.25-25.05Q228.25-26.49 227.64-27.6 227.03-28.71 225.8-29.33 224.56-29.96 222.66-29.96L222.66-29.96Q220.83-29.96 219.61-29.42 218.39-28.88 217.79-28 217.19-27.12 217.19-26.03L217.19-26.03Q217.19-24.88 218-24.02 218.8-23.17 220.34-22.45 221.88-21.73 224.08-21.04L224.08-21.04Q227.96-19.87 230.6-18.29 233.23-16.7 234.56-14.54 235.89-12.38 235.89-9.42L235.89-9.42Q235.89-6.3 234.29-4.08 232.69-1.86 229.79-0.68 226.88 0.49 222.95 0.49L222.95 0.49Q220.27 0.49 217.69-0.21 215.12-0.9 213.03-2.36 210.94-3.81 209.7-6.03 208.45-8.25 208.45-11.3L208.45-11.3 216.14-11.3Q216.14-9.72 216.62-8.63 217.09-7.54 217.99-6.86 218.88-6.18 220.13-5.87 221.39-5.57 222.95-5.57L222.95-5.57Q224.78-5.57 225.94-6.07 227.1-6.57 227.67-7.43 228.23-8.3 228.23-9.38ZM264.7-6.18L264.7 0 245.92 0 245.92-6.18 264.7-6.18ZM248.39-35.55L248.39 0 240.7 0 240.7-35.55 248.39-35.55ZM262.26-21.26L262.26-15.28 245.92-15.28 245.92-21.26 262.26-21.26ZM264.67-35.55L264.67-29.35 245.92-29.35 245.92-35.55 264.67-35.55ZM283.52-28.81L274.05 0 265.87 0 279.08-35.55 284.25-35.55 283.52-28.81ZM291.28 0L281.79-28.81 280.98-35.55 286.18-35.55 299.46 0 291.28 0ZM291.04-13.28L291.04-7.08 272.19-7.08 272.19-13.28 291.04-13.28ZM302.63-35.55L316.01-35.55Q320.14-35.55 323.1-34.31 326.07-33.08 327.66-30.7 329.24-28.32 329.24-24.8L329.24-24.8Q329.24-21.88 328.28-19.82 327.32-17.77 325.58-16.43 323.85-15.09 321.51-14.26L321.51-14.26 319.06-12.87 307.66-12.87 307.61-19.07 315.99-19.07Q317.84-19.07 319.09-19.69 320.33-20.31 320.94-21.46 321.55-22.61 321.55-24.17L321.55-24.17Q321.55-26.56 320.2-27.95 318.84-29.35 316.01-29.35L316.01-29.35 310.3-29.35 310.3 0 302.63 0 302.63-35.55ZM322.31 0L314.3-15.8 322.41-15.84 330.54-0.37 330.54 0 322.31 0ZM355.12-11.91L362.76-11.91Q362.54-8.3 360.79-5.49 359.03-2.69 355.89-1.1 352.75 0.49 348.36 0.49L348.36 0.49Q343.77 0.49 340.45-1.6 337.13-3.69 335.35-7.54 333.56-11.4 333.56-16.67L333.56-16.67 333.56-18.85Q333.56-24.15 335.41-28 337.25-31.86 340.57-33.96 343.89-36.06 348.41-36.06L348.41-36.06Q352.9-36.06 355.99-34.41 359.08-32.76 360.77-29.91 362.47-27.05 362.81-23.39L362.81-23.39 355.15-23.39Q354.93-26.51 353.45-28.14 351.97-29.76 348.41-29.76L348.41-29.76Q346.04-29.76 344.48-28.61 342.91-27.47 342.13-25.06 341.35-22.66 341.35-18.9L341.35-18.9 341.35-16.67Q341.35-12.99 342.05-10.57 342.74-8.15 344.28-6.97 345.82-5.79 348.36-5.79L348.36-5.79Q350.58-5.79 352.02-6.46 353.46-7.13 354.22-8.5 354.97-9.86 355.12-11.91L355.12-11.91ZM391.06-21.26L391.06-15.09 372.79-15.09 372.79-21.26 391.06-21.26ZM375.07-35.55L375.07 0 367.37 0 367.37-35.55 375.07-35.55ZM396.55-35.55L396.55 0 388.88 0 388.88-35.55 396.55-35.55Z" opacity="1" transform="matrix(1,0,0,1,0,0)" fill="#000000" class="undefined-text-0" data-fill-palette-color="primary" id="text-0"></path></svg></g></svg></g><g transform="matrix(1,0,0,1,0,45.16616211685015)"><svg viewBox="0 0 232.20979199999996 18.909933433792013" height="18.909933433792013" width="232.20979199999996"><g transform="matrix(1,0,0,1,0,0)"><svg width="232.20979199999996" viewBox="2 -35.29999923706055 443.2699890136719 36.099998474121094" height="18.909933433792013" data-palette-color="#89939e"><path d="M6.1-33.7L6.1-0.8 2-0.4 2 0 26.5 0 27.75-10.9 27.15-11 23.75-2.45Q23.3-1.35 22.75-0.98 22.2-0.6 21-0.6L21-0.6 9.95-0.6 9.95-33.7 14.3-34.1 14.3-34.5 2-34.5 2-34.1 6.1-33.7ZM56.35-10.55L56.9-10.5 55.65 0 31.15 0 31.15-0.4 35.25-0.8 35.25-33.7 31.15-34.1 31.15-34.5 55.7-34.5 56.4-25.1 55.9-25.05 53.1-32.05Q52.65-33.2 52.12-33.55 51.6-33.9 50.4-33.9L50.4-33.9 39.1-33.9 39.1-18.55 46.5-18.55Q47.7-18.55 48.2-18.95 48.7-19.35 48.9-20.5L48.9-20.5 49.75-24.55 50.35-24.55 50.35-11.75 49.75-11.75 48.9-15.8Q48.7-16.95 48.2-17.35 47.7-17.75 46.5-17.75L46.5-17.75 39.1-17.75 39.1-0.6 50.3-0.6Q51.5-0.6 52.05-0.98 52.6-1.35 53.05-2.45L53.05-2.45 56.35-10.55ZM89.34-0.9L93.5-0.4 93.5 0 81.25 0 81.25-0.4 85.34-0.9 80.65-13.7 68.55-13.7 64.4-2.65Q64.2-2.1 64.2-1.75L64.2-1.75Q64.2-1.2 64.52-0.98 64.84-0.75 65.7-0.65L65.7-0.65 68.75-0.4 68.75 0 58.1 0 58.1-0.4 60.9-0.65Q62.15-0.75 62.67-1.15 63.2-1.55 63.6-2.65L63.6-2.65 75.84-35.3 76.75-35.3 89.34-0.9ZM68.84-14.5L80.34-14.5 74.75-29.75 74.55-29.75 68.84-14.5ZM124.39-0.4L125.09-0.4 125.09 0 119.94 0Q118.74 0 118.14-0.35 117.54-0.7 116.89-1.7L116.89-1.7 109.24-14.05Q108.54-15.2 108.07-15.48 107.59-15.75 106.39-15.75L106.39-15.75 102.69-15.75 102.69-0.8 107.04-0.4 107.04 0 94.74 0 94.74-0.4 98.84-0.8 98.84-33.7 94.74-34.1 94.74-34.5 107.39-34.5Q113.29-34.5 116.39-32.13 119.49-29.75 119.49-25.25L119.49-25.25Q119.49-21.75 117.59-19.5 115.69-17.25 112.09-16.4L112.09-16.4 112.14-16.4 121.29-2.1Q121.94-1.1 122.57-0.75 123.19-0.4 124.39-0.4L124.39-0.4ZM107.24-33.9L102.69-33.9 102.69-16.5 107.24-16.5Q111.24-16.5 113.17-18.63 115.09-20.75 115.09-25.15L115.09-25.15Q115.09-29.6 113.14-31.75 111.19-33.9 107.24-33.9L107.24-33.9ZM147.39-34.5L159.34-34.5 159.34-34.1 155.74-33.7Q154.54-33.55 154.14-33.1 153.74-32.65 153.74-31.45L153.74-31.45 153.74 0.8 153.24 0.8 130.79-31.05 130.59-31.05 130.59-3.05Q130.59-1.85 130.89-1.38 131.19-0.9 132.09-0.8L132.09-0.8 135.64-0.4 135.64 0 124.69 0 124.69-0.4 128.29-0.8Q129.19-0.9 129.49-1.38 129.79-1.85 129.79-3.05L129.79-3.05 129.79-32.15 129.59-32.45Q128.89-33.45 128.27-33.77 127.64-34.1 126.44-34.1L126.44-34.1 125.59-34.1 125.59-34.5 133.04-34.5 152.74-6.9 152.94-6.9 152.94-31.45Q152.94-32.65 152.64-33.15 152.34-33.65 151.44-33.7L151.44-33.7 147.39-34.1 147.39-34.5ZM201.64-0.9L205.79-0.4 205.79 0 193.54 0 193.54-0.4 197.64-0.9 192.94-13.7 180.84-13.7 176.69-2.65Q176.49-2.1 176.49-1.75L176.49-1.75Q176.49-1.2 176.81-0.98 177.14-0.75 177.99-0.65L177.99-0.65 181.04-0.4 181.04 0 170.39 0 170.39-0.4 173.19-0.65Q174.44-0.75 174.96-1.15 175.49-1.55 175.89-2.65L175.89-2.65 188.14-35.3 189.04-35.3 201.64-0.9ZM181.14-14.5L192.64-14.5 187.04-29.75 186.84-29.75 181.14-14.5ZM228.98-34.5L240.93-34.5 240.93-34.1 237.33-33.7Q236.13-33.55 235.73-33.1 235.33-32.65 235.33-31.45L235.33-31.45 235.33 0.8 234.83 0.8 212.38-31.05 212.18-31.05 212.18-3.05Q212.18-1.85 212.48-1.38 212.78-0.9 213.68-0.8L213.68-0.8 217.23-0.4 217.23 0 206.28 0 206.28-0.4 209.88-0.8Q210.78-0.9 211.08-1.38 211.38-1.85 211.38-3.05L211.38-3.05 211.38-32.15 211.18-32.45Q210.48-33.45 209.86-33.77 209.23-34.1 208.03-34.1L208.03-34.1 207.18-34.1 207.18-34.5 214.63-34.5 234.33-6.9 234.53-6.9 234.53-31.45Q234.53-32.65 234.23-33.15 233.93-33.65 233.03-33.7L233.03-33.7 228.98-34.1 228.98-34.5ZM262.78-34.5L273.43-34.5 273.43-34.1 270.63-33.85Q269.43-33.75 268.96-33.38 268.48-33 267.93-31.85L267.93-31.85 259.23-13.7 259.23-0.8 263.58-0.4 263.58 0 251.03 0 251.03-0.4 255.38-0.8 255.38-13.45 244.53-33.7 240.43-34.1 240.43-34.5 252.88-34.5 252.88-34.1 248.53-33.7 258.68-14.75 258.93-14.75 267.13-31.85Q267.33-32.3 267.33-32.8L267.33-32.8Q267.33-33.3 266.98-33.55 266.63-33.8 265.83-33.85L265.83-33.85 262.78-34.1 262.78-34.5ZM310.23-34.5L320.88-34.5 320.88-34.1 318.08-33.85Q316.73-33.75 316.23-33.38 315.73-33 315.38-31.85L315.38-31.85 305.43 0.8 304.63 0.8 295.88-24.1 288.28 0.8 287.48 0.8 275.33-33.7 271.23-34.1 271.23-34.5 283.73-34.5 283.73-34.1 279.38-33.7 289.23-5.6 289.43-5.6 295.43-25.3 292.48-33.7 288.38-34.1 288.38-34.5 300.88-34.5 300.88-34.1 296.53-33.7 306.38-5.6 306.58-5.6 314.58-31.85Q314.73-32.4 314.73-32.8L314.73-32.8Q314.73-33.35 314.43-33.58 314.13-33.8 313.28-33.85L313.28-33.85 310.23-34.1 310.23-34.5ZM354.13-34.1L350.03-33.7 350.03-0.8 354.13-0.4 354.13 0 341.83 0 341.83-0.4 346.18-0.8 346.18-17.75 329.53-17.75 329.53-0.8 333.88-0.4 333.88 0 321.58 0 321.58-0.4 325.68-0.8 325.68-33.7 321.58-34.1 321.58-34.5 333.88-34.5 333.88-34.1 329.53-33.7 329.53-18.55 346.18-18.55 346.18-33.7 341.83-34.1 341.83-34.5 354.13-34.5 354.13-34.1ZM383.32-10.55L383.87-10.5 382.62 0 358.12 0 358.12-0.4 362.22-0.8 362.22-33.7 358.12-34.1 358.12-34.5 382.67-34.5 383.37-25.1 382.87-25.05 380.07-32.05Q379.62-33.2 379.1-33.55 378.57-33.9 377.37-33.9L377.37-33.9 366.07-33.9 366.07-18.55 373.47-18.55Q374.67-18.55 375.17-18.95 375.67-19.35 375.87-20.5L375.87-20.5 376.72-24.55 377.32-24.55 377.32-11.75 376.72-11.75 375.87-15.8Q375.67-16.95 375.17-17.35 374.67-17.75 373.47-17.75L373.47-17.75 366.07-17.75 366.07-0.6 377.27-0.6Q378.47-0.6 379.02-0.98 379.57-1.35 380.02-2.45L380.02-2.45 383.32-10.55ZM418.47-0.4L419.17-0.4 419.17 0 414.02 0Q412.82 0 412.22-0.35 411.62-0.7 410.97-1.7L410.97-1.7 403.32-14.05Q402.62-15.2 402.15-15.48 401.67-15.75 400.47-15.75L400.47-15.75 396.77-15.75 396.77-0.8 401.12-0.4 401.12 0 388.82 0 388.82-0.4 392.92-0.8 392.92-33.7 388.82-34.1 388.82-34.5 401.47-34.5Q407.37-34.5 410.47-32.13 413.57-29.75 413.57-25.25L413.57-25.25Q413.57-21.75 411.67-19.5 409.77-17.25 406.17-16.4L406.17-16.4 406.22-16.4 415.37-2.1Q416.02-1.1 416.65-0.75 417.27-0.4 418.47-0.4L418.47-0.4ZM401.32-33.9L396.77-33.9 396.77-16.5 401.32-16.5Q405.32-16.5 407.25-18.63 409.17-20.75 409.17-25.15L409.17-25.15Q409.17-29.6 407.22-31.75 405.27-33.9 401.32-33.9L401.32-33.9ZM444.72-10.55L445.27-10.5 444.02 0 419.52 0 419.52-0.4 423.62-0.8 423.62-33.7 419.52-34.1 419.52-34.5 444.07-34.5 444.77-25.1 444.27-25.05 441.47-32.05Q441.02-33.2 440.49-33.55 439.97-33.9 438.77-33.9L438.77-33.9 427.47-33.9 427.47-18.55 434.87-18.55Q436.07-18.55 436.57-18.95 437.07-19.35 437.27-20.5L437.27-20.5 438.12-24.55 438.72-24.55 438.72-11.75 438.12-11.75 437.27-15.8Q437.07-16.95 436.57-17.35 436.07-17.75 434.87-17.75L434.87-17.75 427.47-17.75 427.47-0.6 438.67-0.6Q439.87-0.6 440.42-0.98 440.97-1.35 441.42-2.45L441.42-2.45 444.72-10.55Z" opacity="1" transform="matrix(1,0,0,1,0,0)" fill="#000000" class="undefined-text-1" data-fill-palette-color="secondary" id="text-1"></path></svg></g></svg></g></svg></g></svg></g><g><svg viewBox="0 0 82.20832011208334 88.55316405098746" height="88.55316405098746" width="82.20832011208334"><g><svg xmlns="http://www.w3.org/2000/svg" xmlns:xlink="http://www.w3.org/1999/xlink" version="1.1" x="0" y="0" viewBox="15.3179931640625 9.85300064086914 74.26800537109375 80.00001525878906" enable-background="new 0 0 100 100" xml:space="preserve" height="88.55316405098746" width="82.20832011208334" class="icon-icon-0" data-fill-palette-color="accent" id="icon-0"><g fill="#89939e" data-fill-palette-color="accent"><path fill="none" d="M73.971 53.502H19.195c-1.888 0-3.423 1.537-3.423 3.424l4.561 26.438c0.003 1.924 1.539 3.463 3.427 3.463h45.648c1.886 0 3.423-1.539 3.423-3.426l4.567-26.513C77.395 55.039 75.859 53.502 73.971 53.502zM46.583 71.349c-0.906 0-1.642-0.732-1.642-1.642 0-0.904 0.736-1.641 1.642-1.641 0.908 0 1.641 0.736 1.641 1.641C48.225 70.616 47.491 71.349 46.583 71.349z"></path><path fill="none" d="M76.586 16.854c-6.066 0-11.002 4.935-11.002 11s4.936 11 11.002 11 11-4.935 11-11S82.652 16.854 76.586 16.854zM82.871 34.284c-0.195 0.19-0.447 0.285-0.699 0.285-0.26 0-0.52-0.101-0.715-0.301l-5.586-5.715c-0.028-0.029-0.039-0.066-0.063-0.098-0.055-0.071-0.11-0.14-0.146-0.224-0.033-0.083-0.042-0.172-0.053-0.261-0.004-0.04-0.023-0.075-0.023-0.116v-4.836c0-0.552 0.448-1 1-1 0.553 0 1 0.448 1 1v4.428l5.301 5.424C83.273 33.264 83.266 33.897 82.871 34.284z"></path><path d="M46.584 41.494c7.689 0 13.922-10.03 13.922-17.72 0-7.688-6.232-13.921-13.922-13.921-7.688 0-13.921 6.233-13.921 13.921C32.663 31.464 38.896 41.494 46.584 41.494z" fill="#000000" data-fill-palette-color="accent"></path><path d="M46.584 43.226c-14.482 0-23.364 4.259-24.908 9.821h49.818C69.95 47.484 61.067 43.226 46.584 43.226z" fill="#000000" data-fill-palette-color="accent"></path><path fill="#000000" d="M72.487 88.027H20.679c-0.504 0-0.914 0.41-0.914 0.914 0 0.505 0.41 0.912 0.914 0.912h51.808c0.505 0 0.913-0.407 0.913-0.912C73.4 88.438 72.992 88.027 72.487 88.027z" data-fill-palette-color="accent"></path><path fill="#000000" d="M73.971 53.047h-2.477H21.676h-2.481c-2.139 0-3.88 1.74-3.877 3.918L19.88 83.4c0 2.141 1.741 3.881 3.88 3.881h45.648c2.139 0 3.879-1.74 3.875-3.843l4.568-26.513C77.852 54.787 76.11 53.047 73.971 53.047zM72.831 83.4c0 1.887-1.537 3.426-3.423 3.426H23.76c-1.888 0-3.424-1.539-3.427-3.463l-4.561-26.438c0-1.887 1.535-3.424 3.423-3.424h54.775c1.889 0 3.424 1.537 3.428 3.386L72.831 83.4z" data-fill-palette-color="accent"></path><path fill="#000000" d="M46.583 68.066c-0.906 0-1.642 0.736-1.642 1.641 0 0.909 0.736 1.642 1.642 1.642 0.908 0 1.641-0.732 1.641-1.642C48.225 68.803 47.491 68.066 46.583 68.066z" data-fill-palette-color="accent"></path><path fill="#000000" d="M76.586 14.854c-7.169 0-13.002 5.832-13.002 13s5.833 13 13.002 13 13-5.832 13-13S83.755 14.854 76.586 14.854zM76.586 38.854c-6.066 0-11.002-4.935-11.002-11s4.936-11 11.002-11 11 4.935 11 11S82.652 38.854 76.586 38.854z" data-fill-palette-color="accent"></path><path fill="#000000" d="M77.586 27.446v-4.428c0-0.552-0.447-1-1-1-0.552 0-1 0.448-1 1v4.836c0 0.041 0.02 0.076 0.023 0.116 0.011 0.089 0.02 0.177 0.053 0.261 0.035 0.084 0.091 0.153 0.146 0.224 0.024 0.032 0.035 0.069 0.063 0.098l5.586 5.715c0.195 0.201 0.455 0.301 0.715 0.301 0.252 0 0.504-0.095 0.699-0.285 0.395-0.386 0.402-1.02 0.016-1.414L77.586 27.446z" data-fill-palette-color="accent"></path></g></svg></g></svg></g></svg></g><defs></defs></svg><rect width="395.52" height="72.0144370523319" fill="none" stroke="none" visibility="hidden"></rect></g></svg></g></svg>